<svg height="491pt" viewBox="0 -29 491.096 491" width="491pt" xmlns="http://www.w3.org/2000/svg"><path transform="scale(1, -1) translate(0, -100)" d="m331.097656 328.046875h48v16h-48zm0 0"/><path d="m51.097656 193.800781v76.496094l38.0625 9.511719v-95.519532zm0 0" fill="#f0bc5e"/><path d="m339.097656 56.046875c-22.058594 0-40 17.945313-40 40v8h16v48h-48v-103.015625l8.855469-35.4375-13.546875-13.546875h-70.621094l-13.546875 13.546875 8.859375 35.4375v103.015625h-24v-8c0-6.902344-2.96875-13.078125-7.648437-17.460937l7.535156-45.21875.113281-1.320313c0-13.230469-10.769531-24-24-24-13.234375 0-24 10.769531-24 24l7.644532 46.527344c-4.679688 4.386719-7.644532 10.570312-7.644532 17.472656v8h-8c-13.234375 0-24 10.769531-24 24v120h-45.769531l-37.328125 112h137.59375c8.308594 14.320313 23.78125 24 41.503906 24 26.46875 0 48-21.527344 48-48 0-2.710937-.28125-5.375-.722656-8h.722656v-16h-96v-16h104v-8h8v-64c0-22.054687-17.945312-40-40-40-22.058594 0-40 17.945313-40 40v56h-16v-80h-16v48h-32v-120c0-4.40625 3.589844-8 8-8h24v64h16v-64h168v160h16v-40h128v-112c0-30.878906-25.121094-56-56-56-30.882812 0-56 25.121094-56 56v96h-16v-168h144v264h16v-312zm-290.234375 256h23.136719l-26.671875 80h-23.136719zm162.234375 72c0 17.648437-14.355468 32-32 32-17.648437 0-32-14.351563-32-32 0-2.734375.460938-5.390625 1.132813-8h61.738281c.671875 2.601563 1.128906 5.257813 1.128906 8zm-8-136c10.414063 0 19.214844 6.714844 22.527344 16h-45.050781c3.304687-9.285156 12.105469-16 22.523437-16zm24 32v16h-48v-16zm-48 32h48v16h-48zm-48 16h-16v48h16.710938c-.441406 2.632813-.710938 5.296875-.710938 8 0 2.730469.277344 5.394531.71875 8h-69.617187l26.664062-80h42.234375zm8-256c4.222656 0 7.695313 3.296875 7.980469 7.449219l-6.773437 40.671875c-.417969-.015625-.792969-.121094-1.207032-.121094-.417968 0-.792968.105469-1.203125.121094l-6.773437-40.671875c.277344-4.152344 3.75-7.449219 7.976562-7.449219zm8 80h-16v-8c0-4.40625 3.589844-8 8-8 4.40625 0 8 3.59375 8 8zm104 0h-48v-96h48zm1.75-112h-51.503906l-5.382812-21.542969 2.445312-2.457031h57.378906l2.453125 2.457031zm190.25 144v8c0 4.410156-3.59375 8-8 8-4.410156 0-8-3.589844-8-8v-8zm-40-48c19.308594 0 35.46875 13.769531 39.191406 32h-78.386718c3.722656-18.230469 19.882812-32 39.195312-32zm8 48v8c0 4.410156-3.59375 8-8 8-4.410156 0-8-3.589844-8-8v-8zm-48 0h16v8c0 4.410156-3.59375 8-8 8-4.410156 0-8-3.589844-8-8zm0 30.527344c2.511719.898437 5.183594 1.472656 8 1.472656 6.167969 0 11.742188-2.40625 16-6.238281 4.253906 3.839844 9.832032 6.238281 16 6.238281 6.167969 0 11.742188-2.40625 16-6.238281 4.253906 3.839844 9.832032 6.238281 16 6.238281 2.8125 0 5.488282-.574219 8-1.472656v57.472656h-80zm112-126.527344h-158.632812c3.304687-9.3125 12.199218-16 22.632812-16h136zm0 0"/><path d="m275.097656 184.046875h16v16h-16zm0 0"/><path d="m275.097656 216.046875h16v16h-16zm0 0"/><path d="m275.097656 248.046875h16v16h-16zm0 0"/><path d="m427.097656 432.046875c-35.289062 0-64-28.710937-64-64 0-35.285156 28.710938-64 64-64 35.285156 0 64 28.714844 64 64 0 35.289063-28.714844 64-64 64zm0 0" fill="#f0bc5e"/><path d="m283.097656 432.046875c-35.289062 0-64-28.710937-64-64 0-35.285156 28.710938-64 64-64 35.285156 0 64 28.714844 64 64 0 35.289063-28.714844 64-64 64zm0 0" fill="#f0bc5e"/><path d="m427.097656 344.046875c-10.417968 0-19.21875 6.714844-22.53125 16h-98.941406c-3.3125-9.285156-12.113281-16-22.527344-16-13.234375 0-24 10.769531-24 24 0 13.234375 10.765625 24 24 24 10.414063 0 19.214844-6.710937 22.527344-16h98.949219c3.3125 9.289063 12.113281 16 22.53125 16 13.230469 0 24-10.765625 24-24 0-13.230469-10.777344-24-24.007813-24zm-144 32c-4.410156 0-8-3.582031-8-8 0-4.414063 3.589844-8 8-8 4.40625 0 8 3.585937 8 8 0 4.417969-3.59375 8-8 8zm144 0c-4.410156 0-8-3.582031-8-8 0-4.414063 3.589844-8 8-8 4.40625 0 8 3.585937 8 8 0 4.417969-3.59375 8-8 8zm0 0"/></svg>